<svg width="848" height="757" viewBox="0 0 848 757" fill="none" xmlns="http://www.w3.org/2000/svg">
<path fill-rule="evenodd" clip-rule="evenodd" d="M140.723 230.541C173.356 188.232 215.547 155.697 264.309 129.715C309.848 105.45 362.304 63.7485 412.723 85.6109C469.337 110.159 458.564 193.933 504.59 233.904C534.944 260.267 585.232 244.23 619.804 265.454C673.114 298.182 735.881 331.643 754.769 387.492C774.589 446.098 756.017 511.809 719.019 558.824C681.694 606.253 619.852 654.073 554.887 641.488C484.056 627.766 473.296 511.231 402.466 497.499C322.61 482.017 263.621 590.647 184.811 569.74C113.389 550.793 61.0907 472.303 52.2913 404.603C43.539 337.266 99.8999 283.47 140.723 230.541Z" stroke="white" stroke-width="2"/>
</svg>
