<svg width="65" height="79" viewBox="0 0 65 79" fill="none" xmlns="http://www.w3.org/2000/svg">
<g filter="url(#filter0_d_155:10)">
<path d="M9.39366 55.6998C9.81426 55.9228 10.2865 56.0248 10.7597 55.9949C11.2329 55.965 11.6892 55.8044 12.0795 55.5302L45.8806 31.6811C46.226 31.4373 46.5083 31.1117 46.7032 30.7324C46.8982 30.353 47 29.9312 47 29.5029C47 29.0747 46.8982 28.6528 46.7032 28.2735C46.5083 27.8941 46.226 27.5686 45.8806 27.3247L12.0795 3.47564C11.6899 3.1986 11.2331 3.03591 10.759 3.00529C10.2848 2.97468 9.81151 3.07732 9.39067 3.30202C8.96984 3.52672 8.6176 3.86486 8.37238 4.27957C8.12716 4.69429 7.99835 5.16966 8.00002 5.65385V53.352C7.99994 53.8357 8.12977 54.3102 8.37543 54.7241C8.6211 55.1379 8.97323 55.4754 9.39366 55.6998Z" fill="#AA9EC3"/>
<path d="M9.39366 55.6998C9.81426 55.9228 10.2865 56.0248 10.7597 55.9949C11.2329 55.965 11.6892 55.8044 12.0795 55.5302L45.8806 31.6811C46.226 31.4373 46.5083 31.1117 46.7032 30.7324C46.8982 30.353 47 29.9312 47 29.5029C47 29.0747 46.8982 28.6528 46.7032 28.2735C46.5083 27.8941 46.226 27.5686 45.8806 27.3247L12.0795 3.47564C11.6899 3.1986 11.2331 3.03591 10.759 3.00529C10.2848 2.97468 9.81151 3.07732 9.39067 3.30202C8.96984 3.52672 8.6176 3.86486 8.37238 4.27957C8.12716 4.69429 7.99835 5.16966 8.00002 5.65385V53.352C7.99994 53.8357 8.12977 54.3102 8.37543 54.7241C8.6211 55.1379 8.97323 55.4754 9.39366 55.6998Z" stroke="white" stroke-width="2"/>
</g>
<defs>
<filter id="filter0_d_155:10" x="0" y="-1.90735e-06" width="65" height="79" filterUnits="userSpaceOnUse" color-interpolation-filters="sRGB">
<feFlood flood-opacity="0" result="BackgroundImageFix"/>
<feColorMatrix in="SourceAlpha" type="matrix" values="0 0 0 0 0 0 0 0 0 0 0 0 0 0 0 0 0 0 127 0" result="hardAlpha"/>
<feOffset dx="5" dy="10"/>
<feGaussianBlur stdDeviation="6"/>
<feComposite in2="hardAlpha" operator="out"/>
<feColorMatrix type="matrix" values="0 0 0 0 0.438592 0 0 0 0 0.374876 0 0 0 0 0.554439 0 0 0 0.5 0"/>
<feBlend mode="normal" in2="BackgroundImageFix" result="effect1_dropShadow_155:10"/>
<feBlend mode="normal" in="SourceGraphic" in2="effect1_dropShadow_155:10" result="shape"/>
</filter>
</defs>
</svg>
