<svg width="797" height="818" viewBox="0 0 797 818" fill="none" xmlns="http://www.w3.org/2000/svg">
<path fill-rule="evenodd" clip-rule="evenodd" d="M551.095 192.308C604.507 233.427 704.544 212.289 731.577 274.038C757.899 334.163 695.927 396.998 666.357 455.594C642.714 502.443 611.047 541.436 576.64 581.059C538.108 625.433 511.314 707.177 452.821 701.5C387.537 695.165 387.817 577.315 325.553 556.692C254.828 533.267 171.136 628.274 108.754 587.541C54.742 552.274 58.118 458.213 84.7609 399.466C111.026 341.552 188.819 333.198 240.749 296.495C268.233 277.069 297.781 261.587 317.955 234.648C363.399 173.966 356.318 56.1155 430.909 42.5689C495.183 30.8961 499.332 152.458 551.095 192.308Z" stroke="white" stroke-width="2"/>
</svg>
